:version 1.10
:name ASF
:units
  mass 1
  length 1
  angle deg
:documentation
  ASF file generated by Kaydara
:root
  axis xyz
  order  tx ty tz rx ry rz
  position 0 0 0
  orientation 0 0 0
:bonedata
  begin
    id 1
    name LeftUpLegDummy
    direction 1 -2.30186e-007 -8.31532e-007
    length 2.93387
    axis 0 0 0 xyz
  end
  begin
    id 2
    name LeftUpLeg
    direction -1.82929e-007 -1 -1.48925e-009
    length 17.3336
    axis -3.48766 0.00143442 -0.000521554 xyz
    dof rx ry rz
  end
  begin
    id 3
    name LeftLeg
    direction -1.82929e-007 -1 -5.23717e-011
    length 14.9995
    axis 3.68178 -0.00654042 -0.000282425 xyz
    dof rx ry rz
  end
  begin
    id 4
    name LeftFoot
    direction 8.31532e-007 -4.54534e-011 1
    length 6.74421
    axis 1.87234e-006 4.66016e-005 -5.96866e-006 xyz
    dof rx ry rz
  end
  begin
    id 5
    name LeftToes
    direction 0.00818058 -0.00485161 0.999955
    length 3.85048
    axis 1.06247e-005 4.65869e-005 -5.96999e-006 xyz
    dof rx ry rz
  end
  begin
    id 6
    name SpineDummy
    direction -5.8607e-008 0.943407 -0.331637
    length 5.93572
    axis 0 0 0 xyz
  end
  begin
    id 7
    name Spine
    direction -1.04988e-007 0.999988 0.00495137
    length 10.1015
    axis -0.001389 0.000121417 6.61666e-006 xyz
    dof rx ry rz
  end
  begin
    id 8
    name Spine1
    direction 0 0 0
    length 0
    axis -0.001389 0.00012144 6.56766e-006 xyz
    dof rx ry rz
  end
  begin
    id 9
    name RightShoulderDummy
    direction -0.98348 0.17941 -0.0240696
    length 3.59882
    axis -0.001389 0.00012144 6.56766e-006 xyz
  end
  begin
    id 10
    name RightShoulder
    direction -0.978693 0.204882 0.0135597
    length 2.70001
    axis 0.215806 0.000203631 -0.00679732 xyz
    dof rx ry rz
  end
  begin
    id 11
    name RightArm
    direction -1 3.85509e-006 8.31394e-007
    length 10.2459
    axis -23.2009 -0.134239 -0.964098 xyz
    dof rx ry rz
  end
  begin
    id 12
    name RightForeArm
    direction -1 3.85569e-006 8.3129e-007
    length 8.16799
    axis -9.92322 0.0658061 0.17887 xyz
    dof rx ry rz
  end
  begin
    id 13
    name RightHand
    direction -0.992843 -0.0414604 0.112003
    length 5.28593
    axis -0.00960638 0.00330669 -0.185225 xyz
    dof rx ry rz
  end
  begin
    id 14
    name LeftShoulder1Dummy
    direction 0.983523 0.179172 -0.0240748
    length 3.59866
    axis -0.001389 0.00012144 6.56766e-006 xyz
  end
  begin
    id 15
    name LeftShoulder1
    direction 0.978627 0.205195 0.0135605
    length 2.70019
    axis -0.001389 0.00012144 6.57583e-006 xyz
    dof rx ry rz
  end
  begin
    id 16
    name LeftArm
    direction 1 3.51895e-006 -8.60188e-007
    length 10.2459
    axis -23.1894 0.134785 0.967513 xyz
    dof rx ry rz
  end
  begin
    id 17
    name LeftForeArm
    direction 1 3.51921e-006 -7.32029e-007
    length 8.16799
    axis -9.91835 -0.0656957 -0.177789 xyz
    dof rx ry rz
  end
  begin
    id 18
    name LeftHand
    direction 0.992938 -0.0411636 0.11126
    length 5.32135
    axis -0.00960237 -0.00340661 0.185177 xyz
    dof rx ry rz
  end
  begin
    id 19
    name HEadDummy
    direction 1.01974e-006 0.999861 -0.016675
    length 2.99946
    axis -0.001389 0.00012144 6.56766e-006 xyz
  end
  begin
    id 20
    name HEad
    direction -0.0222689 0.980941 0.193023
    length 5.12695
    axis -0.001389 0.00012144 6.56766e-006 xyz
    dof rx ry rz
  end
  begin
    id 21
    name RightUpLegDummy
    direction -1 2.30186e-007 8.31532e-007
    length 2.93387
    axis 0 0 0 xyz
  end
  begin
    id 22
    name RightUpLeg
    direction -1.82966e-007 -1 1.56832e-007
    length 17.3336
    axis -3.4909 -0.000906625 0.00028951 xyz
    dof rx ry rz
  end
  begin
    id 23
    name RightLeg
    direction -1.82786e-007 -1 -1.80317e-007
    length 14.9995
    axis 3.68513 0.0193739 -0.131021 xyz
    dof rx ry rz
  end
  begin
    id 24
    name RightFoot
    direction 8.31721e-007 -4.63324e-011 1
    length 6.74421
    axis 4.81691e-005 -0.120479 -0.188785 xyz
    dof rx ry rz
  end
  begin
    id 25
    name RightToes
    direction 0.00124746 -0.014064 0.9999
    length 3.85082
    axis 0.000481921 0.542163 -0.142575 xyz
    dof rx ry rz
  end
:hierarchy
  begin
    root LeftUpLegDummy SpineDummy RightUpLegDummy
    LeftUpLegDummy LeftUpLeg
    LeftUpLeg LeftLeg
    LeftLeg LeftFoot
    LeftFoot LeftToes
    SpineDummy Spine
    Spine Spine1
    Spine1 RightShoulderDummy LeftShoulder1Dummy HEadDummy
    RightShoulderDummy RightShoulder
    RightShoulder RightArm
    RightArm RightForeArm
    RightForeArm RightHand
    LeftShoulder1Dummy LeftShoulder1
    LeftShoulder1 LeftArm
    LeftArm LeftForeArm
    LeftForeArm LeftHand
    HEadDummy HEad
    RightUpLegDummy RightUpLeg
    RightUpLeg RightLeg
    RightLeg RightFoot
    RightFoot RightToes
  end

:SAMPLES-PER-SECOND 30
:FULLY-SPECIFIED
:DEGREES
83
root  16.5604 34.403 7.75681 7.81439 10.4403 -3.86069
LeftUpLeg  -17.0994 20.3731 4.94111
LeftLeg  12.1572 21.7595 3.16052
LeftFoot  8.17281 -0.232286 3.25051
LeftToes  -13.6022 2.48695e-006 -1.03773e-007
Spine  5.0398 -3.02715 -4.11464
Spine1  9.44144 -7.55314 -4.60106
RightShoulder  0.0293776 3.7358 4.69517
RightArm  -17.5616 -11.4302 81.8616
RightForeArm  24.4198 43.7251 9.72282
RightHand  0.152197 -4.0335 -3.94364
LeftShoulder1  0.217583 -9.50248 -5.23799
LeftArm  -77.179 -15.1505 -16.041
LeftForeArm  21.2079 -14.9516 -2.69534
LeftHand  -0.14015 -0.523458 29.988
HEad  10.3094 1.88999 -0.544095
RightUpLeg  -15.0906 -0.700453 -4.58772
RightLeg  28.7115 10.6593 4.93148
RightFoot  -0.739295 -0.00239911 0.005695
RightToes  -37.1731 -0.196304 -0.298603
84
root  17.0721 34.5066 8.01691 7.8675 9.64541 -4.30846
LeftUpLeg  -16.1428 19.634 5.14241
LeftLeg  12.0386 22.0761 3.15878
LeftFoot  7.25496 -0.188625 2.97467
LeftToes  -12.8749 2.48695e-006 -1.03773e-007
Spine  4.81785 -2.73693 -4.00189
Spine1  9.10424 -6.77878 -4.69703
RightShoulder  0.0242191 3.70683 4.9071
RightArm  -20.1159 -12.6415 81.505
RightForeArm  24.164 39.5245 8.37117
RightHand  0.166418 -4.21685 -4.14153
LeftShoulder1  0.19209 -7.85251 -6.2812
LeftArm  -79.3 -14.4193 -16.8398
LeftForeArm  23.7166 -15.8091 -2.8574
LeftHand  -0.349124 -1.11963 34.4675
HEad  11.3164 2.25838 -0.579158
RightUpLeg  -15.4489 -1.75291 -3.97641
RightLeg  28.0382 5.31568 2.39512
RightFoot  -1.06146 -0.00290623 0.0638556
RightToes  -33.7858 -0.170841 -0.277398
85
root  17.5229 34.5687 8.3213 7.79891 9.49982 -4.47653
LeftUpLeg  -14.8874 18.003 5.3321
LeftLeg  11.5815 22.2711 3.00899
LeftFoot  6.49989 -0.155609 2.73988
LeftToes  -12.5358 2.48695e-006 -1.03773e-007
Spine  4.47937 -2.43457 -3.83258
Spine1  8.53829 -5.953 -4.74283
RightShoulder  0.0184568 3.90829 4.75852
RightArm  -23.5234 -14.1383 81.2484
RightForeArm  24.2848 34.3062 6.90999
RightHand  0.173935 -4.42837 -4.12021
LeftShoulder1  0.158529 -5.44625 -6.88282
LeftArm  -79.0483 -13.1756 -17.3507
LeftForeArm  23.4169 -16.9125 -3.06849
LeftHand  -0.527092 -1.82454 31.9703
HEad  12.5189 2.6601 -0.992853
RightUpLeg  -15.516 -3.02159 -3.54248
RightLeg  27.0421 2.11601 0.907602
RightFoot  -1.20234 -0.00576714 0.136516
RightToes  -32.1032 -0.158669 -0.266315
86
root  17.9092 34.582 8.65712 7.66345 9.59011 -4.22175
LeftUpLeg  -13.5306 16.5044 5.25528
LeftLeg  11.1391 21.632 2.7614
LeftFoot  5.64224 -0.116291 2.35958
LeftToes  -12.1241 2.48695e-006 -1.03773e-007
Spine  4.11159 -1.9578 -3.71854
Spine1  7.89055 -4.82543 -4.76354
RightShoulder  0.0114397 4.32741 4.7328
RightArm  -27.7016 -16.0727 80.5565
RightForeArm  24.9006 29.0226 5.61065
RightHand  0.180406 -4.92753 -3.81586
LeftShoulder1  0.133492 -3.62184 -7.01383
LeftArm  -74.511 -10.4188 -17.4654
LeftForeArm  21.4431 -17.5616 -3.19404
LeftHand  -0.554379 -2.10458 29.2343
HEad  14.0951 2.6434 -1.68759
RightUpLeg  -15.8328 -4.02778 -3.33406
RightLeg  26.5654 0.583785 0.240734
RightFoot  -1.50346 -0.00775298 0.187019
RightToes  -31.2949 -0.152938 -0.260864
87
root  18.2333 34.5875 9.00967 7.60617 10.0944 -3.88328
LeftUpLeg  -12.2139 15.3069 5.21906
LeftLeg  10.4684 19.707 2.29689
LeftFoot  4.99036 -0.0843561 1.93562
LeftToes  -12.2194 2.48695e-006 -1.03773e-007
Spine  3.78529 -1.36897 -3.6247
Spine1  7.32659 -3.47273 -4.8427
RightShoulder  0.00772117 4.99781 5.34631
RightArm  -32.0508 -18.1807 79.2635
RightForeArm  25.5163 23.51 4.3942
RightHand  0.201925 -5.5827 -3.76524
LeftShoulder1  0.107071 -2.25551 -7.41467
LeftArm  -71.7417 -7.96316 -16.7591
LeftForeArm  20.4762 -18.5689 -3.39045
LeftHand  -0.656542 -2.94504 24.8168
HEad  15.5233 2.11351 -1.86842
RightUpLeg  -16.435 -4.57518 -2.99412
RightLeg  26.1516 0.605134 0.244947
RightFoot  -1.45154 -0.00723453 0.192682
RightToes  -31.0251 -0.153617 -0.261507
88
root  18.5171 34.5805 9.36483 7.58869 11.4082 -3.37308
LeftUpLeg  -11.11 14.2887 5.0597
LeftLeg  9.81258 16.7262 1.76955
LeftFoot  4.47028 -0.0584544 1.49757
LeftToes  -12.621 2.48695e-006 -1.03773e-007
Spine  3.5752 -1.01533 -3.4858
Spine1  6.97517 -2.61657 -4.85793
RightShoulder  0.00389566 5.61525 5.69275
RightArm  -36.4666 -19.7621 78.2204
RightForeArm  27.2927 17.6108 3.20384
RightHand  0.222289 -5.9767 -3.8819
LeftShoulder1  0.0843488 -0.885604 -7.76541
LeftArm  -68.9628 -5.81757 -16.5499
LeftForeArm  19.9688 -20.4757 -3.76904
LeftHand  -0.558497 -3.0172 20.646
HEad  16.4812 1.30599 -1.74628
RightUpLeg  -17.2084 -5.16543 -2.68379
RightLeg  25.6022 1.72314 0.688372
RightFoot  -0.979344 -0.0049709 0.1679
RightToes  -31.5316 -0.157022 -0.26474
89
root  18.7582 34.554 9.71008 7.55945 13.5318 -2.71557
LeftUpLeg  -10.4382 13.3378 4.7666
LeftLeg  9.69797 13.3341 1.39126
LeftFoot  3.85354 -0.0356105 1.0585
LeftToes  -13.0177 2.48695e-006 -1.03773e-007
Spine  3.54174 -0.887127 -3.17042
Spine1  6.94486 -2.22904 -4.57212
RightShoulder  -0.00195183 6.0508 5.5345
RightArm  -41.4179 -21.0798 77.5736
RightForeArm  31.1042 13.3923 2.40133
RightHand  0.256767 -6.53288 -4.12256
LeftShoulder1  0.06567 0.375792 -7.79169
LeftArm  -66.6737 -3.51873 -18.1255
LeftForeArm  18.4444 -23.324 -4.35331
LeftHand  -0.569388 -3.45159 18.3958
HEad  16.8702 0.320053 -1.83387
RightUpLeg  -18.1039 -5.92522 -2.44924
RightLeg  24.7793 3.10764 1.19402
RightFoot  -0.851002 -0.00205271 0.132211
RightToes  -32.3302 -0.160292 -0.267831
90
root  18.9596 34.5323 10.0397 7.53607 16.2473 -2.0514
LeftUpLeg  -10.1338 12.5251 4.38725
LeftLeg  9.94789 10.1654 1.10907
LeftFoot  3.2291 -0.019764 0.701166
LeftToes  -13.1106 2.48695e-006 -1.03773e-007
Spine  3.65607 -0.830796 -2.76733
Spine1  7.19662 -2.00551 -4.1318
RightShoulder  -0.00559285 6.62456 5.58285
RightArm  -46.1049 -22.8901 77.1345
RightForeArm  34.3739 11.9133 2.1257
RightHand  0.329317 -7.2838 -4.79616
LeftShoulder1  0.0504807 1.40486 -7.94753
LeftArm  -65.964 -2.34675 -20.0875
LeftForeArm  18.1596 -25.7899 -4.88055
LeftHand  -0.460612 -3.13248 16.392
HEad  17.1949 -1.04787 -1.82474
RightUpLeg  -19.0805 -6.11819 -2.32393
RightLeg  23.5065 3.9572 1.42195
RightFoot  -0.749399 0.000953471 0.0970185
RightToes  -32.6153 -0.162338 -0.269725
91
root  19.1395 34.513 10.3713 7.51165 19.2197 -1.46015
LeftUpLeg  -9.88266 11.8815 3.9744
LeftLeg  10.1239 7.58115 0.852289
LeftFoot  2.68927 -0.0106459 0.453535
LeftToes  -13.119 2.48695e-006 -1.03773e-007
Spine  3.84021 -0.751531 -2.3385
Spine1  7.57961 -1.75483 -3.60925
RightShoulder  -0.00714469 6.82579 5.73282
RightArm  -48.4085 -24.8598 77.0432
RightForeArm  35.3497 12.4207 2.21821
RightHand  0.396148 -7.87746 -5.37432
LeftShoulder1  0.0391848 1.92065 -7.96028
LeftArm  -65.3124 -1.86057 -21.9751
LeftForeArm  18.9114 -27.2873 -5.21203
LeftHand  -0.420961 -3.12767 14.9903
HEad  17.7343 -2.93894 -1.57378
RightUpLeg  -20.1822 -5.69738 -2.38018
RightLeg  21.9921 4.12332 1.36078
RightFoot  -0.22759 0.00177699 0.100186
RightToes  -32.5411 -0.164427 -0.271622
92
root  19.3244 34.4916 10.7206 7.50442 21.9811 -1.01063
LeftUpLeg  -9.35325 11.1375 3.71722
LeftLeg  9.84076 5.48186 0.589495
LeftFoot  2.26095 -0.00566554 0.2871
LeftToes  -13.2415 2.48695e-006 -1.03773e-007
Spine  3.98711 -0.774979 -1.86807
Spine1  7.88566 -1.69567 -2.99908
RightShoulder  -0.00814597 6.92412 5.63328
RightArm  -49.6099 -26.2019 77.1705
RightForeArm  36.148 13.4091 2.40047
RightHand  0.390571 -7.82833 -5.32916
LeftShoulder1  0.0275116 2.37943 -7.88298
LeftArm  -64.2388 -0.790785 -23.8051
LeftForeArm  20.0533 -30.5678 -5.97222
LeftHand  -0.386005 -2.94158 14.6127
HEad  18.367 -4.27959 -1.37927
RightUpLeg  -21.5681 -5.62208 -2.46655
RightLeg  20.5243 4.54477 1.37271
RightFoot  0.582247 0.00124988 0.131404
RightToes  -32.6203 -0.166996 -0.273937
